{"title":"I.Give.It.a.Year.2013.R5.DVDRip.XVID.AC3.HQ.Hive-CM8","uid":8427238,"size":1454641220,"categoryP":"video","categoryS":"movies","magnet":"?xt=urn:btih:90236f9e0ce190342bb5a217927ea53aa30c5ae3&amp;dn=I.Give.It.a.Year.2013.R5.DVDRip.XVID.AC3.HQ.Hive-CM8&amp;tr=udp%3A%2F%2Ftracker.openbittorrent.com%3A80&amp;tr=udp%3A%2F%2Fopen.demonii.com%3A1337&amp;tr=udp%3A%2F%2Ftracker.coppersurfer.tk%3A6969&amp;tr=udp%3A%2F%2Fexodus.desync.com%3A6969","seeders":0,"leechers":0,"uploader":"R0thschild","files":4,"time":1367378483,"description":"--------------------------------------------\n\nI.Give.It.a.Year.2013.R5.DVDRip.XVID.AC3.HQ.Hive-CM8\n\nSource:\n\nRussian DVD-9 Daju.god.2013.D.DVD\n\nEncode:\n\nquality of the dvd was ok, also came along with nice english studio audio\ncolours were as usual reddish, so tried to fix the colours to normal levels, looks better now\nadded sharpness and denoise\ngot very nice\nenjoy\n\nVideo: 720x304 @bitrate 1600 2pass\nAudio: English AC3 5.1 @448\nSample: yes included &lt;a href=&quot;\nhttp://www.imdb.com/title/tt2244901/&quot; rel=&quot;nofollow&quot; target=&quot;_NEW&quot;&gt;\nhttp://www.imdb.com/title/tt2244901/&lt;/a&gt;\n\nGeneral\nComplete name: I.Give.It.a.Year.2013.R5.DVDRip.XVID.AC3.HQ.Hive-CM8.avi\nFormat: AVI\nFormat/Info: Audio Video Interleave\nFile size: 1.34 GiB\nDuration: 1h 33mn\nOverall bit rate: 2 057 Kbps\nWriting application: Nandub v1.0rc2\nWriting library: Nandub build 1853/release\n\nVideo\nID: 0\nFormat: MPEG-4 Visual\nFormat profile: Advanced Simple@L5\nFormat settings, BVOP: 2\nFormat settings, QPel: Yes\nFormat settings, GMC: No warppoints\nFormat settings, Matrix: Default (H.263)\nMuxing mode: Packed bitstream\nCodec ID: XVID\nCodec ID/Hint: XviD\nDuration: 1h 33mn\nBit rate: 1 599 Kbps\nWidth: 720 pixels\nHeight: 304 pixels\nDisplay aspect ratio: 2.35:1\nFrame rate: 25.000 fps\nColor space: YUV\nChroma subsampling: 4:2:0\nBit depth: 8 bits\nScan type: Progressive\nCompression mode: Lossy\nBits/(Pixel*Frame): 0.292\nStream size: 1.04 GiB (78%)\nWriting library: XviD 1.2.1 (UTC 2008-12-04)\n\nAudio\nID: 1\nFormat: AC-3\nFormat/Info: Audio Coding 3\nMode extension: CM (complete main)\nFormat settings, Endianness: Big\nCodec ID: 2000\nDuration: 1h 33mn\nBit rate mode: Constant\nBit rate: 448 Kbps\nChannel(s): 6 channels\nChannel positions: Front: L C R, Side: L R, LFE\nSampling rate: 48.0 KHz\nBit depth: 16 bits\nCompression mode: Lossy\nStream size: 299 MiB (22%)\nAlignment: Split accross interleaves\nInterleave, duration: 40 ms (1.00 video frame)\nInterleave, preload duration: 500 ms\n\nPlot:\n\nA look at the trials and tribulations of a newlywed couple during their first year of marriage\n\nCast:\n\nRose Byrne ... Nat\nMinnie Driver ... Naomi\nSimon Baker ... Guy\nRafe Spall ... Josh\nAlex Macqueen ... Minister\nStephen Merchant ... Danny \n\n--------------------------------------------\n\nMore at   &lt;a href=&quot;\nhttp://publichash.com/&quot; rel=&quot;nofollow&quot; target=&quot;_NEW&quot;&gt;\nhttp://publichash.com/&lt;/a&gt;\n\n--------------------------------------------","torrent":{"xt":"urn:btih:90236f9e0ce190342bb5a217927ea53aa30c5ae3","amp;dn":"I.Give.It.a.Year.2013.R5.DVDRip.XVID.AC3.HQ.Hive-CM8","amp;tr":["udp%3A%2F%2Ftracker.openbittorrent.com%3A80","udp%3A%2F%2Fopen.demonii.com%3A1337","udp%3A%2F%2Ftracker.coppersurfer.tk%3A6969","udp%3A%2F%2Fexodus.desync.com%3A6969"],"infoHash":"90236f9e0ce190342bb5a217927ea53aa30c5ae3","infoHashBuffer":{"type":"Buffer","data":[144,35,111,158,12,225,144,52,43,181,162,23,146,126,165,58,163,12,90,227]},"announce":[],"urlList":[]}}